<?xml version="1.0" encoding="utf-8" ?><svg xmlns="http://www.w3.org/2000/svg" xmlns:xlink="http://www.w3.org/1999/xlink" width="249" height="215" viewBox="0 0 249 215"><clipPath id="cl_3"><rect width="249" height="215"/></clipPath><g clip-path="url(#cl_3)"><path fill="#222D3F" transform="scale(0.210127 0.209961)" d="M853.058 119.345C913.609 45.2924 1087.02 -69.4418 1088.79 115.258C1089.36 174.012 1068.7 221.61 1042 272.857C1060.11 301.152 1076.86 320.558 1095.19 353.117C1133.41 420.989 1169.6 525.443 1170.5 602.978C1171.48 687.092 1091.5 787.995 1034.2 844.71C903.339 964.002 754.645 1009.94 580.358 1009.04C348.203 1007.84 101.074 874.54 25.2451 644.272C0.454224 568.991 57.8809 416.566 96.057 349.94C112.535 318.859 132.207 298.613 147.832 272.11C131.827 242.425 117.398 212.763 109.53 179.677C97.4758 128.952 87.7485 33.4066 153.753 16.5357C223.781 9.92813 293.805 70.4427 336.877 119.424C358.422 106.998 392.926 93.6678 417.184 85.7403C561.182 38.5416 717.883 50.6223 853.058 119.345ZM108.937 611.386C155.227 531.443 252.554 447.207 342.209 420.145C474.657 380.166 574.015 521.481 507.71 638.5C474.847 696.49 393.501 741.96 407.874 817.218C414.073 843.441 434 865.325 456.988 878.086C522.713 914.575 595.788 924.546 668.162 904.529C720.976 889.924 795.803 854.747 782.918 786.166C764.08 705.612 683.008 675.898 665.473 596.142C656.924 557.251 662.942 513.722 683.926 479.753C703.682 447.889 735.2 425.226 771.55 416.743C884.316 390.473 1026.17 521.276 1080.54 610.224C1076.47 591.77 1072.28 573.073 1067.26 554.857C1033.69 432.929 894.396 277.285 754.26 308.911C728.876 314.394 705.351 326.451 686.012 343.883C671.055 357.466 659.571 373.554 647.08 389.503C632.397 408.251 618.78 420.191 593.956 420.117C559.132 420.009 544.24 389.041 524.61 365.641C489.804 322.55 441.136 300.713 385.809 305.384C252.795 324.113 159.288 438.048 120.639 561.506C115.845 576.82 112.711 595.442 108.937 611.386ZM813.616 627.129C849.339 621.567 873.843 587.939 868.381 551.969C862.919 515.999 829.556 491.269 793.813 496.705C757.979 502.15 733.341 535.839 738.812 571.902C744.287 607.961 777.799 632.705 813.616 627.129ZM396.167 627.017C432.099 621.423 456.617 587.417 450.756 551.297C444.891 515.173 410.906 490.783 375.072 496.989C339.663 503.12 315.786 536.837 321.577 572.532C327.368 608.222 360.662 632.542 396.167 627.017Z"/><path fill="#222D3F" transform="scale(0.210127 0.209961)" d="M588.105 714.141C596.061 713.381 606.132 714.468 614.167 715.228C692.299 722.624 665.992 810.569 601.88 817.615C582.82 817.62 572.221 816.85 555.303 804.942C535.199 790.785 516.487 758.324 533.767 735.218C545.886 719.012 569.314 716.46 588.105 714.141Z"/></g></svg>